<svg xmlns="http://www.w3.org/2000/svg" version="1.1" xmlns:xlink="http://www.w3.org/1999/xlink" width="1500" height="408" viewBox="0 0 1500 408"><svg xml:space="preserve" width="1500" height="408" data-version="2" data-id="lg_VFK9a33f0y97qETMsH" viewBox="0 0 571 408" x="0" y="0"><rect width="100%" height="100%" fill="transparent"></rect><path fill="#3a3a3a" d="M30.427 3.756h510.147c13.76 0 24.927 7.64 24.927 17.055v279.452c0 6.477-5.355 12.392-13.834 15.28l-255.65 86.928a25.037 17.13 0 0 1-22.222-.012L19.298 315.556A24.854 17.005 0 0 1 5.5 300.288V20.811c0-9.415 11.166-17.055 24.927-17.055"></path><path fill="#fff" d="M519.67 192.3h-8.45v-65.13h-7.96v-7.06h23.83v7.06h-7.42zm-20.72 0h-21.73v-72.19h21.57v7.06h-13.08v24.69h12.38v7.05h-12.38v26.33h13.24zm-50.44 0h-8.58v-72.19h8.49v34.41l12.84-34.41h8.53l-13.45 35.64 14.4 36.55h-8.86l-13.37-34.54zm-38.6 0h-8.49v-72.19h15.13q5.75 0 8.49 2.03 2.75 2.03 3.59 6.11.84 4.08.84 10.28 0 6.68-1.35 10.62-1.35 3.94-5.25 5.09 1.97.32 3.26 1.68 1.29 1.35 2.03 4.22.74 2.87 1.05 7.69.31 4.82.31 12.12v2.01q0 1.32.04 2.87.04 1.56.1 3.08.06 1.52.18 2.69.13 1.17.33 1.7h-8.45q-.16-.37-.28-1.64-.13-1.27-.21-3.37-.08-2.09-.12-4.98-.04-2.89-.04-6.48v-7.85q0-4.1-.35-6.26-.35-2.15-1.64-2.99-1.3-.84-4.13-1.01l-5.04-.28zm0-65.46v24.36h5.41q2.34 0 3.59-.92t1.7-3.69q.46-2.77.46-8.31v-.49q0-4.59-.43-6.95-.44-2.36-1.67-3.18-1.23-.82-3.73-.82zm-41.47 65.46h-8.08l10.95-72.19h10.22l11.93 72.19h-8l-2.05-13.78h-13.08zm8.08-58.82-5.25 38.15h11.08l-5.7-38.15zm-58.24 58.82h-7.22v-72.19h9.76l11.16 57.71 10.62-57.71h9.81v72.19h-7.26v-27.32l.69-26.99-10.87 54.31h-6.07l-11.32-54.31.7 26.99zm-16.45 0H280.1v-72.19h21.57v7.06h-13.08v24.69h12.38v7.05h-12.38v26.33h13.24zm-55.49 0h-7.83v-72.19h6.39l16.74 49.14-.86-20.88v-28.26h7.5v72.19h-6.23l-16.2-49.55.49 18.21zm-19.65 0h-8.49v-72.19h8.49zm-40.36 0h-8.49v-72.19h8.49V151h11.57v-30.89h8.49v72.19h-8.49v-34.37h-11.57zm-32.77.86q-5.25 0-8.36-2.56-3.12-2.57-4.48-7.53-1.35-4.96-1.35-12.06v-30.06q0-4.76.62-8.72.61-3.96 2.19-6.85 1.58-2.89 4.41-4.47 2.83-1.58 7.26-1.58 4.22 0 6.89 1.5t4.14 4.26q1.48 2.77 2.03 6.57.56 3.79.56 8.38v8h-8.33V140q0-6.72-.96-10.07-.97-3.34-4.33-3.34-3.57 0-4.78 3.43-1.21 3.42-1.21 9.94v31.26q0 5.25.45 8.51t1.7 4.73q1.26 1.48 3.59 1.48 3.41 0 4.47-3.44 1.07-3.45 1.07-11.32v-8h8.41v7.91q0 7.22-1.25 12.14-1.25 4.93-4.29 7.43-3.03 2.5-8.45 2.5m-46.35-.86h-8.08l10.96-72.19h10.21l11.93 72.19h-7.99l-2.05-13.78H109.1zm8.08-58.82-5.25 38.15h11.08l-5.7-38.15zM57.05 192.3h-7.22v-72.19h9.77l11.15 57.71 10.62-57.71h9.81v72.19h-7.26v-27.32l.69-26.99-10.86 54.31h-6.07l-11.32-54.31.69 26.99z" paint-order="stroke"></path><g transform="matrix(4.1551 0 0 -.6925 285.905 356.195)"><filter id="a" width="162.5%" height="162.5%" x="-31.25%" y="-31.25%"><feGaussianBlur in="SourceAlpha" stdDeviation="3"></feGaussianBlur><feOffset dx="3" dy="-3" result="oBlur"></feOffset><feFlood flood-color="#000" flood-opacity="1"></feFlood><feComposite in2="oBlur" operator="in"></feComposite><feMerge><feMergeNode></feMergeNode><feMergeNode in="SourceGraphic"></feMergeNode></feMerge></filter><path fill="#fff" d="M90 90H10l40-80z" filter="url(#a)" transform="translate(-50 -50)"></path></g></svg></svg>