<svg xmlns="http://www.w3.org/2000/svg" version="1.1" xmlns:xlink="http://www.w3.org/1999/xlink" width="1500" height="143" viewBox="0 0 1500 143"><svg xml:space="preserve" width="1500" height="143" data-version="2" data-id="lg_laUqzpAB3XZGywhdqM" viewBox="0 0 571 143" x="0" y="0"><rect width="100%" height="100%" fill="transparent"></rect><rect width="302.431" height="140.394" x="-151.216" y="-70.197" fill="#ed6767" paint-order="stroke" rx="19" ry="19" transform="translate(156.716 71.5)"></rect><rect width="257.569" height="140.394" x="-128.784" y="-70.197" fill="#0099f2" paint-order="stroke" rx="19" ry="19" transform="translate(436.716 71.5)"></rect><path fill="#fff" d="m55.06 80.19 8.28-35.53h18.42v1.31h-3.8v45.68h3.8v1.31H60.71v-1.31h3.8V48.52h-.28L53.88 92.96h-8.62L33.11 48.32h-.27v43.33h3.79v1.31h-9.38v-1.31h3.79V45.97h-3.79v-1.31h18.63zm45.67-3.45h2.01v-5.31q0-6.55-.73-8.8-.72-2.24-2.79-2.24-1.25 0-2.25.66-1 .65-1 1.79 0 1.14.42 2.31h1.72q.55 1.45.55 3.49 0 2.03-1.72 3.51-1.73 1.49-4.35 1.49-5.93 0-5.93-5.73 0-8.49 14.42-8.49 8.21 0 11.35 2.8 3.14 2.79 3.14 10.25v14q0 3.59 2 3.59 2.35 0 2.76-7.11l1.04.07q-.28 6.07-2.28 8.35-2 2.28-6.56 2.28-8.28 0-9.52-5.11-.9 2.62-2.69 3.87-1.79 1.24-5.24 1.24-10.22 0-10.22-8.35 0-4.9 3.9-6.73t11.97-1.83m-2.76 8.49q0 3.59.38 4.62.38 1.04 1.45 1.04 1.07 0 2-1.76.94-1.76.94-4.87v-6.41h-.49q-4.28 0-4.28 6.28zm38.09-6.55q0 7.1.69 9.55.69 2.45 2.69 2.45t3.59-2.48q1.59-2.49 1.59-6.83V68.53q0-2.96-1.21-5.03-1.21-2.07-3.35-2.07-2.41 0-3.2 3.07-.8 3.07-.8 10.59zm1.52 29.46h7.04V87.71q-2.62 5.94-8.97 5.94-12.9 0-12.9-17.18 0-8.77 3.55-12.91 3.55-4.14 10.66-4.14 5.73 0 8.07 4.35l.49-3.66h15.73v1.25h-3.8v46.78h3.38v1.24h-23.25zm65.41-16.42v1.24h-15.73l-.76-5.04q-1.1 2.76-3.28 4.24-2.17 1.49-6.45 1.49-10.69 0-10.69-11.52V61.36h-3.87v-1.25h16.7v23.67q0 4.14.59 5.45.58 1.31 2.34 1.31 1.76 0 3.14-2.14 1.38-2.13 1.38-5.93V61.36h-3.17v-1.25h16.01v31.61zm11.53-36.37q-3.66 0-5.21-1.86-1.56-1.86-1.56-4.62t1.69-4.56q1.69-1.79 5.14-1.79 3.45 0 5.25 1.62 1.79 1.62 1.79 4.62 0 3.01-1.72 4.8-1.73 1.79-5.38 1.79m-10.42 6.01v-1.25H221v31.61h3.87v1.24h-20.5v-1.24h3.8V61.36zm22.28 0v-1.25h16.63v6.35q1.11-3.17 3.38-5.1 2.28-1.94 6.9-1.94 10.7 0 10.7 11.53v20.77h3.86v1.24h-19.52v-1.24h2.82V69.29q0-4.14-.55-5.35-.55-1.2-2-1.2-2.21 0-3.9 2.89-1.69 2.9-1.69 7.04v19.05h2.97v1.24h-19.6v-1.24h3.8V61.36zm58.93 15.38h2v-5.31q0-6.55-.72-8.8-.73-2.24-2.8-2.24-1.24 0-2.24.66-1 .65-1 1.79 0 1.14.41 2.31h1.73q.55 1.45.55 3.49 0 2.03-1.73 3.51-1.72 1.49-4.34 1.49-5.94 0-5.94-5.73 0-8.49 14.42-8.49 8.22 0 11.35 2.8 3.14 2.79 3.14 10.25v14q0 3.59 2.01 3.59 2.34 0 2.76-7.11l1.03.07q-.28 6.07-2.28 8.35-2 2.28-6.55 2.28-8.28 0-9.52-5.11-.9 2.62-2.69 3.87-1.8 1.24-5.25 1.24-10.21 0-10.21-8.35 0-4.9 3.9-6.73t11.97-1.83m-2.76 8.49q0 3.59.38 4.62.38 1.04 1.45 1.04 1.07 0 2-1.76.93-1.76.93-4.87v-6.41h-.48q-4.28 0-4.28 6.28zm24.08-23.87v-1.25h16.63v6.35q2.28-7.04 10.04-7.04t9.42 7.46q2.41-7.46 10.14-7.46 10.14 0 10.14 11.53v20.77h3.87v1.24h-19.12v-1.24h2.42V69.29q0-5.24-.9-6.14-.41-.41-1.1-.41-2 0-3.52 2.69t-1.52 6.83v19.46h2.49v1.24h-17.74v-1.24h2.42V69.29q0-5.24-.9-6.14-.41-.41-1.1-.41-1.94 0-3.49 2.93-1.55 2.93-1.55 7v19.05h2.48v1.24h-19.11v-1.24h3.8V61.36zm77.83 15.38h2v-5.31q0-6.55-.72-8.8-.73-2.24-2.8-2.24-1.24 0-2.24.66-1 .65-1 1.79 0 1.14.42 2.31h1.72q.55 1.45.55 3.49 0 2.03-1.72 3.51-1.73 1.49-4.35 1.49-5.93 0-5.93-5.73 0-8.49 14.42-8.49 8.21 0 11.35 2.8 3.14 2.79 3.14 10.25v14q0 3.59 2 3.59 2.34 0 2.76-7.11l1.03.07q-.27 6.07-2.27 8.35-2 2.28-6.56 2.28-8.28 0-9.52-5.11-.9 2.62-2.69 3.87-1.8 1.24-5.25 1.24-10.21 0-10.21-8.35 0-4.9 3.9-6.73t11.97-1.83m-2.76 8.49q0 3.59.38 4.62.38 1.04 1.45 1.04 1.07 0 2-1.76.93-1.76.93-4.87v-6.41h-.48q-4.28 0-4.28 6.28zm47.13-23.18q-2.55 0-4.49 3.31-1.93 3.31-1.93 7.86v18.5h4.9v1.24h-21.53v-1.24h3.8V61.36h-3.8v-1.25h16.63v6.63q.9-3.52 3.45-5.42 2.56-1.9 5.8-1.9 3.24 0 5.28 1.83 2.03 1.83 2.03 5.18 0 3.34-1.52 5.14-1.51 1.79-4.65 1.79-3.14 0-4.63-2.07-1.48-2.07-.38-5.72h2.49q1.72-3.52-1.45-3.52m52.85 30.91H462.5v-1.24h3.18l-7.8-16.01-1.31.34v15.67h3.17v1.24h-19.8v-1.24h3.79V42.45h-4.07v-1.24h16.91v33.46l1.1-.41 15.53-12.9h-6.49v-1.25h13.59v1.25h-4.83l-8.21 6.97 11.94 23.39h2.48zm18.5.69q-8.91 0-13.36-4.59-4.45-4.59-4.45-12.77 0-8.17 5.01-12.52 5-4.35 12.73-4.35 15.66 0 15.04 15.74h-19.46v2.69q0 6.76 1.73 10.21 1.72 3.45 6 3.45 8 0 10.49-8.56l1.24.21q-1.31 4.97-4.73 7.73-3.41 2.76-10.24 2.76m-4.42-23.25v3.38h7.11V70.4q0-5.59-.66-7.63-.65-2.03-2.62-2.03-1.97 0-2.9 2.17-.93 2.17-.93 7.49" paint-order="stroke"></path><path fill="#fff" d="M519.36 83.09V61.36h-3.8v-1.25h3.8v-8.9l12.83-3.17v12.07h8.97v1.25h-8.97v23.25q0 3.24.66 4.76.65 1.52 2.72 1.52 2.07 0 3.62-2.07 1.56-2.07 2.04-5.66l1.17.14q-.55 4.76-3.03 7.55-2.49 2.8-8.21 2.8-5.73 0-8.77-2.28-3.03-2.28-3.03-8.28" paint-order="stroke"></path></svg></svg>